<svg id="Capa_1" enable-background="new 0 0 512 512" height="512" viewBox="0 0 512 512" width="512" xmlns="http://www.w3.org/2000/svg"><g><g><path d="m244.562 28.5c-13.077 0-25.783 1.581-37.95 4.54-4.283-14.89-15.68-25.54-29.072-25.54-17.058 0-30.887 17.278-30.887 38.592 0 1.566.083 3.106.228 4.623-14.203-9.374-31.475-9.532-41.663.656-12.062 12.062-9.623 34.058 5.448 49.129.053.053.108.101.161.153-16.598 25.217-26.266 55.401-26.266 87.848v30.245h320v-30.246c0-88.365-71.634-160-159.999-160z" fill="#707789"/></g><g><path d="m165.006 143.936c-10-71.234 41.606-110.896 41.606-110.896-4.283-14.89-15.68-25.54-29.072-25.54-17.058 0-30.887 17.278-30.887 38.592 0 1.566.083 3.106.228 4.623-14.203-9.374-31.475-9.532-41.663.656-12.062 12.062-9.623 34.058 5.448 49.129.053.053.108.101.161.153-16.598 25.217-26.266 55.401-26.266 87.848v30.245h81.982c2.029-20.202 2.532-45.826-1.537-74.81z" fill="#636978"/></g><g><circle cx="389.689" cy="251.131" fill="#ffdecf" r="36.081"/></g><g><circle cx="99.431" cy="251.131" fill="#ffcdbe" r="36.081"/></g><g><path d="m244.558 383.425c-58.724 0-107.684 41.808-118.738 97.282-2.456 12.324 7.076 23.793 19.643 23.793h135.65l65.368-65.368c-21.534-33.507-59.134-55.707-101.923-55.707z" fill="#fff48f"/></g><g><path d="m273.097 386.813c-9.151-2.211-18.706-3.388-28.537-3.388-58.724 0-107.684 41.808-118.738 97.282-2.456 12.324 7.076 23.793 19.643 23.793h35.081c-.001-57.042 39.449-104.862 92.551-117.687z" fill="#ffee6e"/></g><g><path d="m284.811 390.285c-12.594-4.438-26.138-6.861-40.249-6.861-14.11 0-27.654 2.42-40.247 6.857 3.263 19.285 20.035 33.976 40.248 33.976 20.212.001 36.984-14.688 40.248-33.972z" fill="#ffcdbe"/></g><g><path d="m385.103 215.341c-64.284-15.747-90.338-62.213-90.338-62.213l9.718 49.367c1.299 6.599-4.159 12.559-10.851 11.881-92.749-9.386-128.625-70.44-128.625-70.44-17.363 55.526-60.782 71.324-60.99 71.4-2.935 11.558-4.487 23.668-4.457 36.147.191 79.877 67.133 145.714 147.004 144.632 79.158-1.072 142.996-65.574 142.996-144.986-.002-12.352-1.551-24.341-4.457-35.788z" fill="#ffeee5"/></g><g><path d="m149.558 251.128c0-33.437 11.324-64.225 30.338-88.754-10.252-10.546-14.89-18.439-14.89-18.439-17.363 55.526-60.782 71.324-60.99 71.4-2.935 11.558-4.487 23.668-4.457 36.147.191 79.877 67.133 145.714 147.004 144.632 7.829-.106 15.505-.842 22.987-2.142-68.163-11.85-119.992-71.291-119.992-142.844z" fill="#ffdecf"/></g><g><path d="m417.349 464.5-62.467 10-62.467-10c-11.046 0-20-8.954-20-20 0-11.046 8.954-20 20-20l62.467-10 62.467 10c11.046 0 20 8.954 20 20 0 11.046-8.955 20-20 20z" fill="#e3a67b"/></g><g><path d="m322.414 444.5c0-11.046 8.954-20 20-20v-8.004l-50 8.004c-11.046 0-20 8.954-20 20s8.954 20 20 20l50 8.004v-8.004c-11.046 0-20-8.954-20-20z" fill="#d99668"/></g><g><path d="m428.65 504.5h-147.537c-11.046 0-20-8.954-20-20 0-11.046 8.954-20 20-20h147.537c11.046 0 20 8.954 20 20 0 11.046-8.954 20-20 20z" fill="#f5e3a7"/></g><g><path d="m311.113 484.5c0-11.046 8.954-20 20-20h-50c-11.046 0-20 8.954-20 20s8.954 20 20 20h50c-11.046 0-20-8.954-20-20z" fill="#f5d882"/></g><g><path d="m281.783 424.5c-13.171 0-22.773-12.519-19.312-25.227 11.071-40.652 48.251-70.542 92.411-70.542 44.16 0 81.34 29.889 92.411 70.542 3.461 12.708-6.141 25.227-19.312 25.227z" fill="#f5e3a7"/></g><g><path d="m312.47 399.273c8.903-32.688 34.692-58.402 67.411-67.229-7.972-2.151-16.349-3.313-25-3.313-44.16 0-81.339 29.89-92.411 70.542-3.461 12.708 6.141 25.227 19.312 25.227h50c-13.17 0-22.773-12.519-19.312-25.227z" fill="#f5d882"/></g><path d="m440.313 459.603c2.863-4.338 4.535-9.528 4.535-15.103 0-5.668-1.725-10.941-4.676-15.323 3.736-1.844 7.047-4.55 9.676-7.991 5.24-6.858 6.946-15.563 4.681-23.884-10.073-36.984-39.776-64.738-75.985-73.295 5.093-9.348 9.163-19.175 12.181-29.322 23.552-.554 42.544-19.872 42.544-43.555 0-15.856-8.514-29.757-21.208-37.383v-25.247c0-92.36-75.141-167.5-167.5-167.5-11.147 0-22.275 1.108-33.168 3.297-6.586-14.777-19.535-24.297-33.853-24.297-19.096 0-34.979 16.829-37.904 38.783-14.608-5.112-29.812-2.624-39.721 7.284-13.8 13.801-12.798 37.658 1.53 55.381-15.97 26.198-24.384 56.17-24.384 87.052v25.246c-12.696 7.625-21.212 21.527-21.212 37.385 0 23.713 19.04 43.049 42.632 43.557 7.306 24.164 20.694 46.368 39.415 64.793 13.693 13.476 29.361 24.07 46.289 31.501-33.643 17.963-58.177 50.402-65.72 88.259-1.604 8.047.471 16.312 5.691 22.676 5.257 6.408 13.022 10.083 21.307 10.083h283.187c15.163 0 27.5-12.336 27.5-27.5 0-10.996-6.489-20.5-15.837-24.897zm-147.899-2.603c-6.893 0-12.5-5.607-12.5-12.5s5.607-12.5 12.5-12.5h124.935c6.893 0 12.5 5.607 12.5 12.5s-5.607 12.5-12.5 12.5zm-36.206-42.337c-3.699 1.379-7.636 2.095-11.645 2.095-11.835 0-22.437-6.231-28.364-15.824 9.28 1.777 18.774 2.694 28.392 2.694.688 0 1.383-.004 2.072-.014 2.54-.035 5.085-.146 7.626-.306-.181 3.893.475 7.75 1.919 11.355zm138.227-135.352c1.729-9.237 2.624-18.664 2.624-28.182 0-9.473-.877-18.912-2.607-28.174 13.5 2.275 23.818 14.04 23.818 28.177 0 14.141-10.328 25.91-23.835 28.179zm-323.585-28.18c0-14.135 10.317-25.9 23.815-28.176-1.753 9.382-2.629 18.946-2.606 28.546.023 9.425.927 18.724 2.653 27.814-13.522-2.257-23.862-14.032-23.862-28.184zm36.209.334c-.024-10.364 1.109-20.68 3.372-30.718 10.554-4.92 39.888-21.613 56.806-61.189 5.988 7.139 15.218 16.668 28.162 26.187 3.336 2.455 8.031 1.738 10.485-1.599s1.738-8.032-1.599-10.485c-22.626-16.638-32.723-33.374-32.812-33.524-1.502-2.558-4.369-3.988-7.319-3.651-2.948.338-5.419 2.381-6.305 5.213-14.473 46.281-47.573 62.826-54.957 66.005-1.152-.091-2.308-.153-3.461-.153-2.512 0-4.972.226-7.369.636v-19.687c0-29.894 8.655-58.846 25.03-83.725 1.964-2.983 1.551-6.938-.986-9.452l-.17-.163c-12.092-12.121-14.522-29.378-5.413-38.488 7.436-7.437 20.688-7.315 32.229.301 2.412 1.592 5.521 1.656 7.997.167s3.875-4.268 3.6-7.143c-.131-1.362-.194-2.64-.194-3.907-.002-17.143 10.49-31.09 23.385-31.09 9.617 0 18.404 8.083 21.864 20.113 1.111 3.865 5.072 6.165 8.98 5.214 11.805-2.871 23.977-4.327 36.178-4.327 84.089 0 152.5 68.411 152.5 152.5v19.686c-2.398-.411-4.859-.636-7.373-.636-1.333 0-2.667.082-3.993.202-59.231-15-84.152-57.875-84.389-58.293-1.803-3.215-5.673-4.646-9.133-3.37-3.459 1.273-5.479 4.871-4.768 8.487l9.718 49.367c.21 1.07-.287 1.81-.602 2.156-.321.352-1.018.928-2.136.814-23.788-2.407-45.835-8.572-65.525-18.321-3.716-1.839-8.211-.317-10.05 3.393-1.838 3.712-.318 8.211 3.394 10.049 21.31 10.551 45.087 17.213 70.672 19.803 5.587.564 10.958-1.49 14.736-5.639 3.769-4.139 5.31-9.662 4.228-15.153l-3.897-19.8c14.5 14.241 37.533 31.119 70.904 40.222 2.132 9.703 3.211 19.661 3.211 29.661 0 24.923-6.695 49.171-19.383 70.412-2.579-.195-5.177-.309-7.795-.309-21.248 0-41.659 6.405-59.027 18.522-3.396 2.37-4.229 7.045-1.858 10.442 2.37 3.396 7.043 4.23 10.442 1.859 14.837-10.353 32.28-15.824 50.444-15.824 39.724 0 74.749 26.734 85.175 65.012 1.027 3.772.252 7.721-2.127 10.835-2.39 3.127-6.017 4.921-9.949 4.921h-146.199c-3.933 0-7.56-1.794-9.949-4.921-2.379-3.114-3.154-7.063-2.127-10.834 2.965-10.884 7.939-20.981 14.785-30.012 2.503-3.301 1.855-8.005-1.445-10.507-3.303-2.503-8.007-1.854-10.508 1.446-6.014 7.933-10.794 16.573-14.272 25.78-3.913.386-7.867.612-11.805.665-36.578.517-71.442-13.647-98.043-39.825-26.583-26.163-41.272-60.727-41.359-97.325zm28.694 240.938c-2.36-2.877-3.3-6.606-2.577-10.23 7.25-36.387 32.271-67.119 66.103-81.859 6.927 18.621 24.84 31.444 45.285 31.444 7.395 0 14.624-1.682 21.192-4.892 1.217.875 2.497 1.651 3.834 2.311-2.951 4.382-4.676 9.655-4.676 15.323 0 5.575 1.672 10.765 4.535 15.103-9.347 4.397-15.836 13.901-15.836 24.897 0 4.5 1.093 8.747 3.017 12.5h-111.167c-3.775 0-7.314-1.675-9.71-4.597zm292.897 4.597h-147.538c-6.892 0-12.499-5.607-12.499-12.5s5.607-12.5 12.499-12.5h147.538c6.893 0 12.5 5.607 12.5 12.5s-5.607 12.5-12.5 12.5z"/><g><g><g><ellipse cx="164.535" cy="279.633" fill="#ffa1ac" rx="23.515" ry="29.529" transform="matrix(.002 -1 1 .002 -115.458 443.555)"/></g><g><ellipse cx="324.591" cy="279.983" fill="#ffa1ac" rx="23.515" ry="29.529" transform="matrix(.002 -1 1 .002 43.898 603.961)"/></g></g><g><path d="m182.028 269.618c-4.143 0-7.5-3.358-7.5-7.5v-12c0-4.142 3.357-7.5 7.5-7.5s7.5 3.358 7.5 7.5v12c0 4.142-3.357 7.5-7.5 7.5z"/></g><g><path d="m306.925 269.618c-4.143 0-7.5-3.358-7.5-7.5v-12c0-4.142 3.357-7.5 7.5-7.5s7.5 3.358 7.5 7.5v12c0 4.142-3.358 7.5-7.5 7.5z"/></g><path d="m273.57 261.773c-4.143 0-7.5 3.358-7.5 7.5 0 3.835-3.12 6.956-6.956 6.956-3.835 0-6.955-3.12-6.955-6.956 0-4.142-3.357-7.5-7.5-7.5s-7.5 3.358-7.5 7.5c0 3.835-3.12 6.956-6.956 6.956-3.835 0-6.955-3.12-6.955-6.956 0-4.142-3.357-7.5-7.5-7.5s-7.5 3.358-7.5 7.5c0 12.106 9.849 21.956 21.955 21.956 5.533 0 10.59-2.062 14.456-5.451 3.865 3.39 8.922 5.451 14.455 5.451 12.106 0 21.956-9.849 21.956-21.956 0-4.142-3.357-7.5-7.5-7.5z"/></g></g></svg>